<svg width="250" height="68" fill="none" xmlns="http://www.w3.org/2000/svg"><g clip-path="url(#clip0)"><path d="M1.453 9.291v54.163h54.163V9.29H1.453zm47.343 47.343H8.175V16.012h40.623v40.622zm192.535-11.663c1.582 0 2.175 1.088 1.977 2.57h-4.744c.494-1.878 1.581-2.57 2.767-2.57zm-3.162 5.535h10.18l.099-.692c.79-5.238-2.175-8.4-7.117-8.4-4.941 0-8.598 3.458-8.598 8.796 0 4.744 3.459 6.72 7.808 6.72 4.151 0 7.017-1.877 7.709-5.337h-5.238c-.297.989-.989 1.68-2.372 1.68-1.78 0-2.471-1.284-2.471-2.767zm-18.285 6.128l5.436-7.808-1.186 7.808h5.535l2.273-14.727h-5.436l-5.436 7.71 1.186-7.71h-5.436l-2.372 14.727h5.436zm-13.739 0h5.535l2.273-14.727h-5.534l-.791 5.535h-3.756l.89-5.535h-5.535l-2.372 14.727h5.535l.889-5.535h3.756l-.89 5.535zm-21.25.297c2.274 0 3.558-1.088 4.349-2.175 0 .593 0 1.285.099 1.878h5.337c-.197-1.285-.099-2.669.198-4.645l.593-3.954c.692-4.447-1.68-6.622-6.622-6.622-3.954 0-6.622 1.78-7.314 5.436h5.139c.198-.79.692-1.581 1.878-1.581 1.483 0 1.681.89 1.483 2.075l-.099.297h-2.076c-4.941 0-7.907 1.285-7.907 5.14.297 2.767 2.373 4.15 4.942 4.15zm2.372-3.657c-.988 0-1.482-.495-1.482-1.187 0-.988.692-1.383 2.471-1.383h1.482l-.098.79c-.297 1.088-1.187 1.78-2.373 1.78zm-15.517-2.768c1.087 0 1.779.395 1.779 1.285 0 .988-.692 1.483-1.878 1.483h-1.581l.494-2.768h1.186zm.89-5.436c.988 0 1.482.297 1.482 1.087 0 .89-.593 1.384-1.779 1.384h-1.483l.396-2.47h1.384zm-8.698 11.564h8.994c3.756 0 6.029-1.878 6.029-4.547 0-1.779-1.087-2.767-2.471-3.063 1.68-.396 2.866-1.582 2.866-3.46 0-2.075-1.482-3.657-5.238-3.657h-7.808l-2.372 14.727zm-9.291-3.756c-1.779 0-2.273-1.383-2.273-2.668 0-2.669.988-4.646 3.064-4.646 1.482 0 2.174 1.087 2.174 2.471 0 2.768-.988 4.843-2.965 4.843zm-.099 4.053c5.14 0 8.599-3.559 8.599-8.698 0-4.744-3.657-6.82-7.709-6.82-5.14 0-8.698 3.657-8.599 8.698 0 4.744 3.756 6.82 7.709 6.82zm-16.604 0c4.349 0 7.116-2.274 7.61-6.227h-4.942c-.296 1.482-1.186 2.273-2.471 2.273-1.68 0-2.273-1.087-2.273-2.767 0-2.274.692-4.547 2.768-4.547 1.284 0 1.877.593 1.976 1.977h5.14c-.099-4.349-3.163-6.227-7.116-6.227-4.942 0-8.402 3.46-8.402 8.698.198 4.546 3.46 6.82 7.71 6.82zm-17.297-4.053c-1.779 0-2.273-1.383-2.273-2.668 0-2.669.988-4.646 3.064-4.646 1.482 0 2.174 1.087 2.174 2.471 0 2.768-.889 4.843-2.965 4.843zm0 4.053c5.14 0 8.599-3.559 8.599-8.698 0-4.744-3.657-6.82-7.709-6.82-5.14 0-8.698 3.657-8.599 8.698 0 4.744 3.657 6.82 7.709 6.82zm-17.791-7.413c.198-1.285.495-2.669.692-3.855h2.471l-1.779 10.971h5.535l2.273-14.727h-12.65s-.594 4.25-1.088 6.622c-.395 2.076-.79 3.756-2.076 3.756-.494 0-.593-.099-.593-.099l-.691 4.448s.494.297 1.976.297c4.053-.1 5.239-3.756 5.93-7.413zm-16.308 3.36c-1.779 0-2.273-1.383-2.273-2.668 0-2.669.988-4.646 3.064-4.646 1.483 0 2.174 1.087 2.174 2.471 0 2.768-.89 4.843-2.965 4.843zm-.099 4.053c5.14 0 8.6-3.559 8.6-8.698 0-4.744-3.658-6.82-7.71-6.82-5.14 0-8.698 3.657-8.599 8.698.099 4.744 3.756 6.82 7.71 6.82zM78.35 45.564l.593-3.657H68.366l-2.372 14.727h5.535l1.68-11.07h5.14zm71.064-20.854c1.581 0 2.174 1.087 1.977 2.57h-4.745c.495-1.879 1.582-2.57 2.768-2.57zm-3.163 5.436h10.18l.099-.692c.791-5.239-2.174-8.401-7.116-8.401s-8.599 3.459-8.599 8.796c0 4.744 3.459 6.721 7.808 6.721 4.151 0 7.018-1.878 7.709-5.337h-5.238c-.296.988-.988 1.68-2.372 1.68-1.779 0-2.471-1.186-2.471-2.767zm-15.122 2.47c-1.779 0-2.273-1.383-2.273-2.668 0-2.669.988-4.645 3.064-4.645 1.482 0 2.174 1.087 2.174 2.47 0 2.768-.89 4.844-2.965 4.844zm0 4.053c5.139 0 8.599-3.558 8.599-8.698 0-4.744-3.657-6.82-7.71-6.82-5.139 0-8.697 3.657-8.598 8.698 0 4.744 3.657 6.82 7.709 6.82zm-16.407-.395h5.535l2.273-14.727h-5.535l-.791 5.535h-3.755l.79-5.535h-5.436l-2.372 14.727h5.535l.89-5.437h3.755l-.889 5.437zm-12.157 0l2.372-14.727h-6.72l-3.954 7.017-1.68-7.017h-6.524l-2.273 14.727h4.25l1.285-8.204 2.273 8.204h1.977l4.843-8.204-1.285 8.204h5.436zm-31.628.296c3.657 0 5.733-2.273 7.907-6.326l7.71-14.133h-6.326l-3.855 7.907-2.47-7.907h-6.425l5.337 14.331c-.692.89-1.483 1.384-2.471 1.384-.494 0-.988-.099-1.483-.198l-.691 4.646c.197.098 1.186.296 2.767.296z" fill="#007FA3"/><path d="M29.424 0l-8.4 46.948 11.563 2.075 8.401-46.058L29.424 0zM17.663 66.122L29.029 68l2.372-13.837-11.267-1.78-2.471 13.74z" fill="#F30"/></g><defs><clipPath id="clip0"><path fill="#fff" d="M0 0h250v68H0z"/></clipPath></defs></svg>